<?xml version="1.0" standalone="no"?>
<!DOCTYPE svg PUBLIC "-//W3C//DTD SVG 20010904//EN"
 "http://www.w3.org/TR/2001/REC-SVG-20010904/DTD/svg10.dtd">
<svg version="1.0" xmlns="http://www.w3.org/2000/svg"
 width="1000.000000pt" height="1080.000000pt" viewBox="0 0 1000.000000 1080.000000"
 preserveAspectRatio="xMidYMid meet">

<g transform="translate(0.000000,1080.000000) scale(0.100000,-0.100000)"
fill="#000000" stroke="none">
<path d="M6250 9504 c-133 -18 -297 -57 -425 -101 -129 -44 -355 -155 -470
-230 -536 -351 -898 -922 -980 -1548 -19 -150 -19 -421 0 -571 94 -713 544
-1344 1191 -1667 183 -91 425 -171 604 -198 l80 -12 0 -314 0 -313 -50 0 c-54
0 -112 -24 -143 -58 -47 -51 -46 -39 -47 -1084 l0 -988 -2315 0 -2315 0 0 360
0 360 2111 0 c1435 0 2116 3 2130 10 27 15 25 64 -3 84 -19 13 -59 16 -235 16
l-213 0 0 339 c0 340 0 340 -22 355 -19 14 -62 16 -270 16 -235 0 -249 -1
-268 -20 -19 -19 -20 -33 -20 -355 l0 -335 -155 -1 c-85 -1 -167 -1 -182 -2
l-28 -1 -3 339 c-2 298 -4 341 -19 357 -15 16 -37 18 -268 18 -201 0 -255 -3
-271 -14 -18 -14 -19 -29 -19 -355 l0 -341 -140 -1 c-77 -1 -160 -2 -185 -3
l-45 -1 -2 345 c-1 317 -3 345 -19 357 -13 10 -78 13 -264 13 -206 0 -249 -3
-268 -16 -22 -15 -22 -15 -22 -355 l0 -339 -147 -1 c-82 0 -165 -2 -185 -5
l-38 -4 0 340 c0 327 -1 341 -20 360 -19 19 -33 20 -268 20 -208 0 -251 -2
-270 -16 -22 -15 -22 -15 -22 -355 l0 -339 -142 -1 c-79 -1 -161 -2 -183 -2
l-40 -1 -3 542 -2 542 2118 0 c1634 0 2121 3 2130 12 7 7 12 24 12 38 0 44
-16 50 -127 50 l-103 0 0 278 c0 258 -1 280 -18 295 -17 15 -73 17 -595 17
l-577 0 0 284 c0 283 0 285 -22 300 -20 14 -141 16 -1094 16 -1000 0 -1074 -2
-1093 -18 -20 -16 -21 -27 -24 -297 l-2 -280 -105 -3 c-84 -2 -107 -6 -118
-19 -9 -13 -12 -88 -12 -295 l0 -278 -185 0 -185 0 0 780 0 780 1408 0 c1082
0 1411 3 1420 12 19 19 15 66 -7 78 -11 6 -87 10 -175 10 l-156 0 0 513 c0
427 -2 516 -14 533 -14 18 -30 19 -396 19 -366 0 -382 -1 -396 -19 -12 -17
-14 -106 -14 -533 l0 -513 -245 0 -245 0 0 517 1 518 -21 17 c-20 16 -54 18
-383 17 -300 0 -366 -3 -385 -15 l-22 -14 0 -520 0 -520 -185 0 -185 0 0 720
0 720 1289 0 1290 0 15 22 c20 29 20 34 -4 58 -13 13 -33 20 -60 20 l-40 0 0
333 c0 285 -2 336 -16 355 l-15 22 -379 0 -379 0 -15 -22 c-14 -19 -16 -70
-16 -355 l0 -333 -185 0 -185 0 0 339 c0 295 -2 342 -16 355 -13 14 -63 16
-389 16 -326 0 -376 -2 -389 -16 -14 -13 -16 -60 -16 -355 l0 -339 -245 0
-245 0 0 156 c0 88 -4 164 -10 175 -12 22 -59 26 -78 7 -9 -9 -12 -649 -12
-2819 l0 -2808 22 -15 c20 -14 261 -16 2368 -16 l2345 0 1 -55 c2 -71 30 -124
80 -152 39 -22 43 -23 439 -22 368 0 485 5 502 22 3 4 12 39 19 79 10 57 13
302 13 1113 -1 572 -4 1066 -8 1097 -4 32 -16 70 -27 85 -29 40 -99 73 -156
73 l-48 0 0 314 0 314 58 7 c31 4 116 22 187 40 721 181 1308 728 1538 1432
77 237 107 425 107 685 0 587 -222 1121 -639 1539 -347 347 -780 561 -1259
623 -152 20 -426 19 -572 0z m620 -109 c356 -60 701 -215 974 -436 679 -547
945 -1465 665 -2288 -76 -223 -209 -463 -358 -644 -68 -84 -229 -244 -314
-312 -413 -332 -973 -498 -1498 -444 -718 73 -1341 503 -1662 1145 -135 271
-203 538 -214 849 -31 880 490 1678 1313 2010 155 62 388 119 569 139 88 9
433 -3 525 -19z m-4290 -1460 l0 -305 -305 0 -305 0 0 305 0 305 305 0 305 0
0 -305z m1180 0 l0 -305 -300 0 -300 0 0 305 0 305 300 0 300 0 0 -305z
m-1302 -1362 l-3 -478 -302 -3 -303 -2 0 480 0 480 305 0 305 0 -2 -477z
m1302 -3 l0 -480 -300 0 -300 0 0 480 0 480 300 0 300 0 0 -480z m-1062 -1107
l-3 -48 -252 -3 -253 -2 0 -195 0 -195 -50 0 -50 0 0 245 0 245 306 0 305 0
-3 -47z m710 0 l-3 -48 -252 -3 -253 -2 0 -195 0 -195 -50 0 -50 0 0 245 0
245 306 0 305 0 -3 -47z m712 -3 l0 -50 -255 0 -255 0 0 -195 0 -195 -50 0
-50 0 0 245 0 245 305 0 305 0 0 -50z m2610 -605 l0 -305 -190 0 -190 0 0 305
0 305 190 0 190 0 0 -305z m-4270 15 l0 -50 -255 0 -255 0 0 -195 0 -195 -50
0 -50 0 0 245 0 245 305 0 305 0 0 -50z m710 0 l0 -50 -255 0 -255 0 0 -195 0
-195 -50 0 -50 0 0 245 0 245 305 0 305 0 0 -50z m710 0 l0 -50 -255 0 -255 0
0 -195 0 -195 -50 0 -50 0 0 245 0 245 305 0 305 0 0 -50z m710 0 l0 -50 -255
0 -255 0 0 -195 0 -195 -44 0 c-34 0 -45 4 -47 18 -2 9 -3 119 -1 245 l3 227
299 0 300 0 0 -50z m710 0 l0 -50 -255 0 -255 0 0 -195 0 -195 -45 0 -45 0 0
245 0 245 300 0 300 0 0 -50z m1639 -444 c12 -11 21 -31 21 -48 l0 -28 -350 0
-351 0 -24 -24 c-22 -22 -23 -30 -22 -137 l1 -114 -47 -3 -47 -3 0 169 c0 178
2 188 50 205 8 3 180 4 381 4 346 -2 368 -3 388 -21z m-500 -451 c1 -8 2 -28
2 -45 0 -47 -3 -56 -20 -56 -9 0 -60 -1 -113 -2 l-98 -2 1 -607 1 -608 -46 -3
-46 -3 0 660 0 661 93 1 c77 1 220 12 223 17 0 1 2 -5 3 -13z m-4219 -170 l0
-45 -135 0 -135 0 -2 -257 -3 -258 -45 0 -45 0 -3 303 -2 302 185 0 185 0 0
-45z m950 0 l0 -45 -135 0 -135 0 -2 -257 -3 -258 -45 0 -45 1 -3 302 -2 302
185 0 185 0 0 -45z m950 0 l0 -45 -140 0 -140 0 -2 -257 c-3 -241 -4 -258 -21
-261 -10 -2 -29 -1 -43 2 l-24 6 0 300 0 300 185 0 185 0 0 -45z m950 0 l0
-45 -140 0 -140 0 0 -255 c0 -197 -3 -255 -12 -257 -7 0 -28 -1 -45 -2 l-33
-1 0 303 0 302 185 0 185 0 0 -45z m1364 -1261 c23 -22 20 -60 -6 -78 -17 -12
-48 -16 -119 -16 l-97 0 1 -135 2 -135 -25 0 c-14 0 -36 7 -48 16 -21 15 -22
21 -22 184 l0 169 103 4 c56 1 123 4 149 5 31 1 52 -3 62 -14z"/>
<path d="M6310 9035 c-774 -106 -1380 -729 -1470 -1510 -72 -634 229 -1265
773 -1619 430 -281 974 -350 1469 -186 129 42 334 147 448 227 122 87 316 282
402 403 607 859 309 2049 -631 2520 -301 150 -661 210 -991 165z m519 -115
c353 -64 701 -264 929 -535 419 -498 506 -1156 231 -1735 -319 -671 -1068
-1039 -1789 -880 -133 30 -235 66 -365 130 -442 216 -761 622 -865 1099 -133
609 107 1250 608 1626 244 183 496 277 852 319 70 8 294 -5 399 -24z"/>
<path d="M5676 8204 c-14 -14 -16 -106 -16 -864 0 -758 2 -850 16 -864 14 -14
106 -16 864 -16 758 0 850 2 864 16 14 14 16 106 16 864 0 758 -2 850 -16 864
-14 14 -106 16 -864 16 -758 0 -850 -2 -864 -16z m814 -188 c0 -110 9 -136 50
-136 41 0 50 26 50 136 l0 104 365 0 365 0 0 -780 0 -780 -780 0 -780 0 0 780
0 780 365 0 365 0 0 -104z"/>
<path d="M6627 7022 c-21 -23 -22 -56 -1 -76 12 -13 41 -16 150 -16 121 0 136
2 154 20 11 11 20 27 20 35 0 8 -9 24 -20 35 -18 18 -33 20 -153 20 -117 0
-136 -2 -150 -18z"/>
<path d="M1955 6555 c0 -220 1 -309 2 -197 2 112 2 292 0 400 -1 108 -2 17 -2
-203z"/>
<path d="M0 400 l0 -400 5000 0 5000 0 0 400 0 400 -5000 0 -5000 0 0 -400z
m2192 123 c23 -20 23 -57 1 -74 -15 -11 -16 -11 -5 1 27 31 11 72 -33 83 -19
4 -19 5 -1 6 11 0 28 -6 38 -16z m-69 -8 c-3 -9 -8 -14 -10 -11 -3 3 -2 9 2
15 9 16 15 13 8 -4z m-1760 -114 c22 -61 43 -108 47 -104 4 4 24 56 45 116 21
59 42 107 47 107 11 0 9 -5 -42 -149 -23 -64 -44 -107 -53 -109 -15 -3 -17 0
-67 143 -15 44 -31 88 -36 99 -5 13 -3 17 6 14 8 -2 32 -55 53 -117z m517 89
c0 -23 4 -30 20 -30 11 0 20 -4 20 -10 0 -5 -10 -10 -21 -10 -20 0 -21 -4 -17
-71 3 -55 8 -74 23 -85 23 -17 14 -29 -13 -15 -11 6 -22 25 -26 42 -10 51 -7
209 4 209 6 0 10 -13 10 -30z m515 16 c25 -11 33 -19 29 -30 -7 -19 -5 -19
-40 -1 -36 18 -55 19 -78 2 -28 -21 -9 -45 49 -62 87 -25 108 -74 54 -127 -29
-29 -33 -30 -90 -25 -68 6 -72 8 -64 29 5 13 12 14 40 5 50 -15 100 1 100 33
0 16 -8 28 -25 36 -87 40 -105 51 -108 67 -14 70 53 106 133 73z m105 -16 c0
-25 4 -30 25 -30 16 0 25 -6 25 -15 0 -9 -9 -15 -25 -15 -24 0 -25 -3 -25 -60
0 -55 2 -62 25 -72 14 -6 25 -15 25 -20 0 -18 -31 -20 -55 -4 -24 16 -25 20
-25 131 0 96 3 115 15 115 10 0 15 -10 15 -30z m482 -32 l3 -62 36 32 c20 18
45 32 55 32 14 0 9 -9 -21 -40 l-39 -40 42 -60 c40 -57 41 -60 20 -60 -16 0
-32 14 -53 45 -16 25 -33 45 -37 45 -5 0 -8 -20 -8 -45 0 -38 -3 -45 -20 -45
-19 0 -20 7 -20 130 0 122 1 130 20 130 16 0 19 -8 22 -62z m193 30 c1 -20 -2
-24 -11 -17 -8 7 -14 6 -17 -3 -3 -7 -6 2 -6 20 -1 27 3 33 17 30 11 -2 17
-13 17 -30z m-44 -35 c13 -16 12 -17 -3 -4 -17 13 -22 21 -14 21 2 0 10 -8 17
-17z m-1502 -19 c12 -15 21 -40 21 -55 0 -29 0 -29 -65 -29 -72 0 -83 -12 -44
-51 17 -17 30 -20 65 -16 43 4 59 -5 28 -17 -45 -17 -106 3 -123 41 -45 98 56
206 118 127z m191 16 c17 -11 10 -13 -40 -10 -47 2 -75 -28 -75 -80 0 -55 26
-80 82 -80 27 0 42 -4 38 -10 -9 -15 -78 -12 -102 5 -50 35 -50 135 0 170 24
17 74 20 97 5z m265 -13 c20 -16 28 -35 32 -69 5 -42 3 -50 -25 -78 -41 -41
-83 -41 -124 0 -28 28 -30 36 -25 78 9 82 84 119 142 69z m85 7 c0 -14 2 -14
22 0 24 17 38 20 38 9 0 -5 -14 -16 -30 -25 -29 -17 -30 -19 -30 -93 0 -43 -4
-75 -10 -75 -6 0 -10 40 -10 100 0 60 4 100 10 100 6 0 10 -7 10 -16z m537 1
c30 -21 44 -75 32 -120 -25 -88 -143 -88 -168 0 -20 72 20 135 84 135 17 0 40
-7 52 -15z m198 -5 c0 -10 -8 -14 -27 -12 -58 6 -91 -42 -67 -100 11 -28 36
-40 74 -35 12 1 20 -4 20 -13 0 -19 -48 -25 -85 -10 -63 26 -68 148 -6 179 31
15 91 9 91 -9z m5374 -83 c8 -26 17 -47 21 -47 4 0 13 21 21 47 8 25 20 48 27
51 8 2 4 -19 -12 -63 -36 -99 -36 -99 -72 0 -16 44 -20 65 -12 63 7 -3 19 -26
27 -51z m638 36 c3 -8 -6 -11 -24 -10 -35 3 -37 -19 -3 -36 33 -16 40 -63 11
-72 -24 -7 -61 2 -61 15 0 5 14 7 30 4 22 -5 30 -3 30 8 0 8 -13 24 -30 36
-32 24 -37 41 -18 60 15 15 60 12 65 -5z m333 -18 c0 -37 10 -44 30 -20 7 8
17 15 22 15 6 0 5 -7 -2 -15 -12 -14 -11 -29 5 -67 11 -27 -10 -21 -25 7 -7
14 -17 25 -22 25 -4 0 -8 -11 -8 -25 0 -14 -4 -25 -10 -25 -6 0 -10 30 -10 70
0 40 4 70 10 70 6 0 10 -16 10 -35z m580 32 c0 -4 -34 -104 -45 -136 -3 -8 -8
-11 -11 -8 -8 7 38 147 48 147 4 0 8 -2 8 -3z m100 -41 c0 -26 5 -47 13 -50
10 -5 10 -7 0 -12 -7 -3 -13 -12 -13 -20 0 -8 -4 -14 -10 -14 -5 0 -10 7 -10
15 0 10 -10 15 -30 15 -37 0 -37 11 -2 66 35 57 52 57 52 0z m90 -16 c0 -47 3
-60 15 -60 8 0 15 -4 15 -10 0 -5 -18 -10 -40 -10 -22 0 -40 5 -40 10 0 6 7
10 15 10 11 0 15 12 15 45 0 38 -2 43 -17 38 -16 -6 -16 -4 1 15 29 34 36 27
36 -38z m120 51 c0 -5 -11 -12 -25 -15 -29 -7 -34 -26 -7 -26 39 0 58 -55 27
-80 -53 -44 -100 63 -49 114 17 17 54 22 54 7z m107 -3 c15 -19 13 -105 -2
-118 -33 -27 -86 8 -70 46 4 11 7 30 6 43 -4 36 44 57 66 29z m133 7 c0 -6
-60 -127 -66 -134 -2 -2 -7 -2 -10 1 -3 3 6 29 20 57 14 28 26 53 26 56 0 3
-13 5 -30 5 -16 0 -30 5 -30 10 0 6 20 10 45 10 25 0 45 -2 45 -5z m84 -11
c20 -20 20 -73 0 -102 -15 -22 -64 -31 -64 -12 0 6 9 10 20 10 10 0 24 9 29
19 9 16 8 18 -9 14 -26 -7 -50 13 -50 41 0 43 44 61 74 30z m116 -28 c0 -26 5
-47 13 -50 10 -5 10 -7 0 -12 -7 -3 -13 -12 -13 -20 0 -8 -4 -14 -10 -14 -5 0
-10 7 -10 15 0 10 -10 15 -30 15 -37 0 -37 7 -3 65 36 58 53 58 53 1z m124 35
c3 -5 -8 -11 -24 -15 -32 -6 -41 -26 -12 -26 24 0 42 -19 42 -45 0 -43 -39
-58 -72 -28 -39 35 -8 122 44 123 9 0 19 -4 22 -9z m-2086 -28 c12 -12 13 -18
4 -21 -14 -4 -17 -62 -2 -62 6 0 10 -5 10 -11 0 -6 -8 -9 -17 -7 -25 5 -40
118 -16 118 2 0 12 -8 21 -17z m360 0 c12 -12 13 -18 4 -21 -14 -4 -17 -62 -2
-62 6 0 10 -5 10 -11 0 -6 -8 -9 -17 -7 -25 5 -40 118 -16 118 2 0 12 -8 21
-17z m-530 -15 c23 -23 13 -38 -24 -38 -24 0 -34 -4 -31 -12 2 -7 16 -13 30
-13 30 1 36 -12 11 -22 -28 -11 -64 14 -64 45 0 33 16 52 45 52 12 0 26 -5 33
-12z m109 -3 c2 -6 -9 -11 -24 -10 -23 0 -28 -4 -28 -25 0 -21 5 -25 28 -25
15 1 26 -4 24 -10 -5 -15 -46 -18 -63 -5 -17 15 -18 62 -2 78 15 15 60 12 65
-3z m177 -1 c9 -8 16 -24 16 -34 0 -22 -26 -50 -46 -50 -32 0 -54 21 -54 50 0
45 52 66 84 34z m56 5 c0 -8 5 -7 15 1 24 20 29 4 6 -19 -12 -12 -21 -32 -21
-46 0 -14 -4 -25 -10 -25 -5 0 -10 23 -10 50 0 28 5 50 10 50 6 0 10 -5 10
-11z m304 -5 c9 -8 16 -24 16 -34 0 -22 -26 -50 -46 -50 -32 0 -54 21 -54 50
0 45 52 66 84 34z m113 1 c2 -6 -9 -11 -24 -10 -23 0 -28 -4 -28 -25 0 -21 5
-25 28 -25 15 1 26 -4 24 -10 -5 -15 -46 -18 -63 -5 -20 17 -18 67 4 79 20 13
54 10 59 -4z m250 0 c2 -6 -9 -11 -24 -10 -23 0 -28 -4 -28 -25 0 -21 5 -25
28 -25 15 1 26 -4 24 -10 -5 -15 -46 -18 -63 -5 -20 17 -18 67 4 79 20 13 54
10 59 -4z m107 -1 c9 -8 16 -24 16 -34 0 -22 -26 -50 -46 -50 -32 0 -54 21
-54 50 0 45 52 66 84 34z m56 6 c0 -6 8 -5 20 2 15 9 22 10 31 1 8 -8 16 -9
29 -1 32 20 50 3 50 -47 0 -25 -4 -45 -10 -45 -5 0 -10 18 -10 41 0 33 -3 40
-17 37 -13 -2 -19 -14 -21 -41 -4 -47 -22 -49 -22 -3 0 19 -5 38 -10 41 -18
11 -40 -15 -40 -46 0 -16 -4 -29 -10 -29 -5 0 -10 23 -10 50 0 28 5 50 10 50
6 0 10 -5 10 -10z m-270 -80 c0 -5 -4 -10 -10 -10 -5 0 -10 5 -10 10 0 6 5 10
10 10 6 0 10 -4 10 -10z"/>
<path d="M2150 500 c0 -5 5 -10 10 -10 6 0 10 5 10 10 0 6 -4 10 -10 10 -5 0
-10 -4 -10 -10z"/>
<path d="M536 418 c-28 -39 -21 -48 39 -48 59 0 67 9 45 51 -15 27 -64 25 -84
-3z"/>
<path d="M986 424 c-50 -50 -21 -144 44 -144 48 0 80 50 66 104 -13 53 -75 75
-110 40z"/>
<path d="M1616 408 c-32 -46 -8 -118 39 -118 28 0 55 34 55 70 0 36 -27 70
-55 70 -13 0 -31 -10 -39 -22z"/>
<path d="M8887 350 c-18 -29 -18 -30 2 -30 17 0 21 6 21 30 0 17 -1 30 -3 30
-1 0 -11 -13 -20 -30z"/>
<path d="M9085 330 c-8 -13 13 -40 30 -40 18 0 26 25 12 39 -14 14 -34 14 -42
1z"/>
<path d="M9202 374 c2 -11 11 -20 22 -22 13 -3 17 1 14 14 -2 11 -11 20 -22
22 -13 3 -17 -1 -14 -14z"/>
<path d="M9193 324 c-7 -20 11 -38 31 -31 23 9 20 34 -5 40 -13 3 -22 0 -26
-9z"/>
<path d="M9414 375 c-4 -9 -2 -21 4 -27 15 -15 44 -1 40 19 -4 23 -36 29 -44
8z"/>
<path d="M9537 350 c-18 -29 -18 -30 2 -30 17 0 21 6 21 30 0 17 -1 30 -3 30
-1 0 -11 -13 -20 -30z"/>
<path d="M9645 330 c-8 -13 13 -40 30 -40 18 0 26 25 12 39 -14 14 -34 14 -42
1z"/>
<path d="M7398 343 c6 -2 18 -2 25 0 6 3 1 5 -13 5 -14 0 -19 -2 -12 -5z"/>
<path d="M7674 336 c-10 -26 4 -48 28 -44 17 2 23 10 23 28 0 18 -6 26 -23 28
-13 2 -25 -3 -28 -12z"/>
<path d="M8034 336 c-10 -26 4 -48 28 -44 17 2 23 10 23 28 0 18 -6 26 -23 28
-13 2 -25 -3 -28 -12z"/>
<path d="M8504 336 c-10 -26 4 -48 28 -44 17 2 23 10 23 28 0 18 -6 26 -23 28
-13 2 -25 -3 -28 -12z"/>
</g>
</svg>
